<?xml version="1.0" encoding="UTF-8" standalone="no"?>
<svg
   xmlns:dc="http://purl.org/dc/elements/1.1/"
   xmlns:cc="http://creativecommons.org/ns#"
   xmlns:rdf="http://www.w3.org/1999/02/22-rdf-syntax-ns#"
   xmlns:svg="http://www.w3.org/2000/svg"
   xmlns="http://www.w3.org/2000/svg"
   viewBox="0 0 816 1056"
   height="1056"
   width="816"
   xml:space="preserve"
   id="svg2"
   version="1.1"><metadata
     id="metadata8"><rdf:RDF><cc:Work
         rdf:about=""><dc:format>image/svg+xml</dc:format><dc:type
           rdf:resource="http://purl.org/dc/dcmitype/StillImage" /></cc:Work></rdf:RDF></metadata><defs
     id="defs6"><clipPath
       id="clipPath18"
       clipPathUnits="userSpaceOnUse"><path
         id="path16"
         d="M 0,792 H 612 V 0 H 0 Z" /></clipPath></defs><g
     transform="matrix(1.3333333,0,0,-1.3333333,0,1056)"
     id="g10"><g
       id="g12"><g
         clip-path="url(#clipPath18)"
         id="g14"><g
           transform="translate(349.8857,413.376)"
           id="g20"><path
             id="path22"
             style="fill:#ed1c24;fill-opacity:1;fill-rule:nonzero;stroke:none"
             d="m 0,0 c -3.563,6.749 -12.908,8.688 -19.83,8.181 -8.364,-0.614 -16.149,-4.345 -24.004,-6.952 -8.115,-2.694 -16.57,-4.562 -25.16,-3.85 -8.682,0.718 -16.939,4.959 -23.167,10.948 -4.838,4.651 -12.406,13.705 -15.555,19.544 -0.699,1.298 -1.412,2.597 -2.149,3.879 -8.102,15.139 -14.131,15.725 -20.08,16.971 -4.439,0.929 -8.141,0.424 -8.244,-1.623 -0.171,-3.405 13.256,-1.706 18.024,-15.13 4,-11.26 5.549,-27.32 6.657,-30.513 3.099,-8.932 12.24,-17.276 19.951,-22.61 3.48,-2.408 7.555,-4.443 11.644,-5.413 19.909,-4.733 34.735,-7.856 47.84,-8.128 7.26,-0.153 16.254,1.535 23.292,3.661 6.317,1.907 10.003,7.174 11.827,13.249 C 2.76,-12.082 2.825,-5.353 0,0" /></g><g
           transform="translate(376.2744,440.3936)"
           id="g24"><path
             id="path26"
             style="fill:#00a650;fill-opacity:1;fill-rule:nonzero;stroke:none"
             d="m 0,0 c -3.802,-5.356 -11.834,-15.911 -17.788,-19.201 -3.509,-1.941 -2.315,1.29 -6.196,0.819 -0.84,-0.101 -2.391,1.099 -3.468,0.908 -0.22,1.384 -0.39,2.818 -0.841,4.11 -0.019,0.834 -0.459,2.118 -0.233,4.226 -0.25,-0.016 -1.138,-1.856 -1.228,-2.57 -0.129,-0.012 -0.617,1.399 -0.78,1.073 -1.133,-2.274 -2.942,-7.829 -1.276,-10.703 -0.012,-2.375 3.408,-5.349 3.535,-4.814 10e-4,-0.005 0.003,-0.011 0.002,-0.015 0.092,-0.77 0.737,-1.125 1.338,-1.091 0.108,-0.159 0.241,-0.3 0.401,-0.425 0.361,-0.808 0.777,-1.571 1.252,-2.292 0.005,-0.029 0.023,-0.057 0.011,-0.083 -0.684,-1.754 -0.644,-3.758 1.646,-8.119 -0.853,1.657 0.194,4.747 0.527,5.437 1.133,-1.269 2.756,-4.609 4.379,-5.067 -1.93,3.035 -0.119,6.463 -0.106,8.024 0.005,0.513 0.787,3.345 0.716,3.871 6.46,1.107 20.856,13.838 24.118,17.206 C 5.765,-4.146 4.2,-1.542 0,0" /></g><g
           transform="translate(215.8115,195.1846)"
           id="g28"><path
             id="path30"
             style="fill:#231f20;fill-opacity:1;fill-rule:nonzero;stroke:none"
             d="M 0,0 H 14.458 V -4.068 H 5.875 v -3.306 h 7.331 v -3.82 H 5.875 v -7.734 H 0 Z" /></g><g
           transform="translate(241.3516,183.4736)"
           id="g32"><path
             id="path34"
             style="fill:#231f20;fill-opacity:1;fill-rule:nonzero;stroke:none"
             d="M 0,0 -2.091,6.803 -4.157,0 Z M 1.211,-4.091 H -5.427 L -6.35,-7.217 h -5.972 l 7.114,18.928 H 1.171 L 8.283,-7.217 H 2.159 Z" /></g><g
           transform="translate(257.4438,187.5146)"
           id="g36"><path
             id="path38"
             style="fill:#231f20;fill-opacity:1;fill-rule:nonzero;stroke:none"
             d="M 0,0 H 2.465 C 2.732,0 3.248,0.086 4.015,0.257 4.404,0.334 4.72,0.532 4.965,0.852 5.21,1.17 5.332,1.537 5.332,1.95 5.332,2.562 5.138,3.028 4.752,3.356 4.363,3.684 3.637,3.847 2.569,3.847 H 0 Z M -5.874,-11.258 V 7.67 H 3.874 C 5.679,7.67 7.062,7.514 8.016,7.202 8.974,6.893 9.743,6.319 10.328,5.48 10.914,4.641 11.207,3.619 11.207,2.414 11.207,1.365 10.982,0.458 10.534,-0.305 10.087,-1.066 9.47,-1.684 8.687,-2.156 8.188,-2.458 7.502,-2.706 6.635,-2.903 7.33,-3.138 7.837,-3.371 8.155,-3.604 8.371,-3.758 8.682,-4.088 9.092,-4.596 9.5,-5.104 9.773,-5.498 9.909,-5.772 l 2.833,-5.486 H 6.135 L 3.009,-5.474 C 2.613,-4.727 2.258,-4.238 1.95,-4.015 1.529,-3.722 1.051,-3.577 0.516,-3.577 H 0 v -7.681 z" /></g><g
           transform="translate(271.9941,195.1846)"
           id="g40"><path
             id="path42"
             style="fill:#231f20;fill-opacity:1;fill-rule:nonzero;stroke:none"
             d="M 0,0 H 7.69 L 10.657,-11.516 13.601,0 h 7.687 V -18.928 H 16.499 V -4.494 L 12.807,-18.928 H 8.473 L 4.789,-4.494 V -18.928 H 0 Z" /></g><g
           transform="translate(295.9932,182.5195)"
           id="g44"><path
             id="path46"
             style="fill:#231f20;fill-opacity:1;fill-rule:nonzero;stroke:none"
             d="m 0,0 5.564,0.349 c 0.121,-0.905 0.366,-1.592 0.735,-2.068 0.602,-0.766 1.462,-1.147 2.583,-1.147 0.834,0 1.478,0.195 1.93,0.586 0.451,0.392 0.677,0.847 0.677,1.361 0,0.491 -0.216,0.931 -0.646,1.318 C 10.413,0.785 9.415,1.151 7.849,1.497 5.282,2.074 3.454,2.839 2.361,3.794 1.259,4.751 0.71,5.967 0.71,7.447 c 0,0.973 0.281,1.89 0.845,2.756 0.564,0.865 1.413,1.546 2.543,2.042 1.131,0.493 2.682,0.741 4.653,0.741 2.419,0 4.263,-0.449 5.532,-1.35 1.27,-0.898 2.025,-2.33 2.267,-4.292 L 11.037,7.022 C 10.89,7.872 10.582,8.493 10.114,8.88 9.645,9.268 8.997,9.462 8.172,9.462 7.491,9.462 6.978,9.316 6.636,9.028 6.291,8.742 6.118,8.389 6.118,7.977 6.118,7.674 6.261,7.406 6.544,7.164 6.818,6.912 7.475,6.682 8.506,6.467 11.063,5.917 12.895,5.359 14,4.795 15.105,4.23 15.91,3.532 16.414,2.697 c 0.504,-0.836 0.754,-1.769 0.754,-2.801 0,-1.213 -0.335,-2.333 -1.005,-3.355 -0.673,-1.025 -1.61,-1.803 -2.815,-2.331 -1.205,-0.529 -2.724,-0.795 -4.558,-0.795 -3.219,0 -5.448,0.62 -6.686,1.858 C 0.863,-3.486 0.163,-1.911 0,0" /></g><g
           transform="translate(298.4526,236.2793)"
           id="g48"><path
             id="path50"
             style="fill:#231f20;fill-opacity:1;fill-rule:evenodd;stroke:none"
             d="m 0,0 c -1.185,-0.625 -2.576,-1.032 -3.515,-1.916 -2.911,-2.737 -5.674,-5.632 -8.433,-8.523 -0.528,-0.554 -0.874,-1.339 -1.141,-2.077 -1.894,-5.252 -3.761,-10.514 -5.604,-15.783 -0.833,-2.384 -1.604,-2.904 -3.807,-1.753 -1.691,0.888 -3.126,2.275 -4.875,3.588 -5.509,-2.929 -7.52,-1.231 -8.576,2.321 -1.654,-1.458 -3.227,-2.947 -4.906,-4.302 -2.007,-1.618 -4.265,-2.034 -6.735,-1.084 -2.38,0.914 -3.634,2.581 -3.652,5.152 -0.006,0.732 -0.045,1.463 -0.078,2.465 -1.723,-1.813 -3.201,-3.568 -4.9,-5.078 -1.007,-0.896 -2.286,-1.727 -3.57,-2.019 -3.482,-0.793 -5.959,1.181 -6.146,5.171 -0.139,2.986 0.407,6.008 0.659,9.146 -1.088,-1.731 -2.333,-3.422 -3.269,-5.274 -1.258,-2.487 -2.318,-5.077 -3.385,-7.654 -0.91,-2.199 -1.927,-2.738 -4.35,-2.109 -2.764,0.717 -4.129,2.08 -3.526,4.18 1.038,3.617 2.445,7.129 3.706,10.682 0.13,0.366 0.324,0.712 0.489,1.065 -0.129,0.157 -0.26,0.314 -0.389,0.471 -0.976,-0.759 -2.103,-1.385 -2.903,-2.298 -3.982,-4.547 -6.98,-9.726 -9.426,-15.234 -1.047,-2.36 -2.286,-2.745 -4.479,-1.337 -2.163,1.389 -3.258,3.383 -3.343,6.006 -7.208,-5.252 -9.953,-5.307 -11.766,-0.238 -2.785,-2.419 -4.995,-5.888 -9.128,-5.866 -1.727,0.01 -3.449,1.045 -5.407,1.692 -2.117,-1.993 -5.13,-2.979 -8.503,-2.748 -2.943,0.205 -4.821,2.154 -5.7,4.681 -1.104,3.176 -1.71,6.53 -2.449,9.824 -0.311,1.394 -0.414,2.834 -0.612,4.253 -0.215,0.083 -0.429,0.167 -0.644,0.251 -0.749,-0.921 -1.679,-1.749 -2.216,-2.781 -2.647,-5.074 -5.15,-10.223 -7.786,-15.302 -1.749,-3.369 -2.7,-3.598 -6.062,-1.709 -0.693,0.39 -1.35,0.861 -1.963,1.366 -1.308,1.079 -1.732,2.227 -0.91,3.981 7.508,16.023 14.933,32.086 22.367,48.144 0.641,1.387 1.153,2.833 1.733,4.247 0.836,2.041 2.345,3.174 4.448,3.057 3.216,-0.181 6.123,-1.256 8.453,-3.563 1.623,-1.606 1.549,-3.059 0.273,-4.957 -3.159,-4.693 -6.209,-9.456 -9.285,-14.202 -0.282,-0.435 -0.446,-0.947 -0.406,-1.86 0.694,0.33 1.514,0.515 2.057,1.008 2.964,2.683 5.984,5.319 8.749,8.2 4.111,4.28 8.038,8.738 12.014,13.148 2.807,3.111 9.18,2.836 11.645,-0.546 1.415,-1.946 0.913,-4.026 -1.471,-5.817 -3.832,-2.879 -7.755,-5.641 -11.523,-8.601 -6.175,-4.858 -12.201,-9.906 -18.4,-14.732 -3.558,-2.769 -4.249,-6.118 -3.063,-10.268 1.151,-4.021 2.786,-7.77 5.418,-11.018 0.796,-0.979 1.916,-1.696 2.969,-2.602 0.213,13.464 4.986,24.436 14.977,32.924 3.1,2.633 6.811,4.117 11.109,3.251 2.237,-0.449 3.319,-1.955 3.728,-3.935 0.425,-2.061 0.27,-4.157 -1.263,-5.815 -0.333,-0.357 -1.125,-0.61 -1.583,-0.482 -6.253,1.763 -10.771,-1.032 -14.475,-5.617 -3.487,-4.312 -5.704,-9.289 -6.655,-14.762 -0.178,-1.015 0.263,-2.134 0.42,-3.204 1.03,0.472 2.326,0.694 3.055,1.458 5.143,5.371 8.128,11.969 10.12,19.013 0.513,1.816 1.238,2.641 3.053,2.369 1.494,-0.227 3.062,-0.319 4.437,-0.87 1.977,-0.789 2.119,-1.958 1.045,-3.819 -1.897,-3.283 -3.721,-6.608 -5.516,-9.946 -0.434,-0.809 -0.832,-1.73 -0.888,-2.622 -0.048,-0.777 0.212,-1.784 0.722,-2.306 0.306,-0.307 1.464,-0.056 2.071,0.261 2.485,1.306 4.229,3.152 5.137,6 2.211,6.931 5.131,13.569 9.185,19.659 0.404,0.609 0.828,1.212 1.31,1.76 2.232,2.528 4.552,2.689 7.14,0.526 2.158,-1.805 2.13,-3.606 0.341,-5.816 -2.761,-3.413 -5.342,-6.976 -7.961,-10.504 -0.446,-0.6 -0.705,-1.34 -1.049,-2.016 0.149,-0.114 0.298,-0.229 0.447,-0.343 1.015,0.982 2.077,1.922 3.036,2.955 3.223,3.471 6.368,7.013 9.626,10.451 2.286,2.411 3.983,2.08 5.491,-0.939 1.009,-2.02 1.234,-4.039 -0.054,-6.063 -0.443,-0.694 -0.758,-1.469 -1.132,-2.205 0.149,-0.131 0.298,-0.261 0.449,-0.39 0.49,0.421 1.057,0.782 1.459,1.275 2.7,3.302 5.277,6.712 8.07,9.932 2.037,2.349 4.363,2.242 6.958,0.017 1.825,-1.563 2.009,-4.073 0.392,-6.272 -2.016,-2.736 -4.256,-5.325 -6.062,-8.193 -1.287,-2.043 -2.085,-4.411 -2.944,-6.694 -0.202,-0.542 0.239,-1.324 0.384,-1.996 0.59,0.198 1.368,0.221 1.739,0.622 3.396,3.643 7.006,7.087 9.045,11.822 2.687,6.245 6.203,11.975 11.845,16.045 3.261,2.351 6.82,3.897 11.007,2.924 2.085,-0.486 3.118,-1.946 3.502,-3.91 0.411,-2.092 0.234,-4.139 -1.229,-5.821 -0.314,-0.358 -1.132,-0.59 -1.6,-0.459 -6.861,1.931 -11.431,-1.567 -15.203,-6.562 -2.955,-3.917 -4.943,-8.374 -5.789,-13.238 -0.21,-1.205 0.197,-2.515 0.322,-3.778 1.174,0.616 2.638,0.972 3.475,1.896 4.825,5.34 7.789,11.74 9.686,18.597 0.527,1.906 1.311,2.591 3.06,2.34 1.556,-0.222 3.191,-0.369 4.606,-0.98 1.829,-0.794 1.864,-1.883 0.826,-3.709 -1.967,-3.467 -3.849,-6.986 -5.717,-10.509 -0.368,-0.691 -0.711,-1.499 -0.714,-2.257 -0.003,-0.714 0.278,-1.629 0.775,-2.079 0.336,-0.304 1.468,-0.202 1.889,0.146 1.338,1.117 2.925,2.223 3.683,3.705 4.57,8.943 9.034,17.944 13.323,27.025 1.794,3.803 2.869,7.911 2.383,12.202 -0.159,1.414 -0.638,2.838 -1.221,4.146 -0.552,1.242 -0.446,2.086 0.855,2.504 1.699,0.545 3.416,1.171 5.172,1.375 2.879,0.334 5.031,-1.651 5.48,-4.618 C 3.094,21.107 1.805,17.263 0.132,13.542 -1.575,9.75 -3.502,6.058 -5.365,2.251 -3.681,3.688 -2.08,5.144 -0.379,6.469 0.501,7.151 1.512,7.74 2.553,8.129 4.436,8.827 6.434,8.981 8.013,7.514 9.684,5.957 9.725,3.698 8.807,1.945 7.411,-0.718 5.776,-3.435 3.625,-5.482 c -3.11,-2.966 -6.71,-5.44 -10.214,-7.967 -3.099,-2.235 -3.641,-3.954 -1.605,-7.225 2.156,-3.464 5.074,-5.97 9.293,-6.539 0.903,-4.397 -1.98,-7.191 -6.279,-6.192 -3.093,0.72 -4.881,2.905 -6.206,5.501 -1.659,3.243 -2.506,6.763 -2.409,10.404 0.057,2.127 1.223,3.729 2.924,5.176 3.536,3.008 6.853,6.275 10.189,9.511 0.577,0.558 0.804,1.479 1.192,2.232 C 0.34,-0.386 0.169,-0.193 0,0" /></g><g
           transform="translate(327.7598,213.3799)"
           id="g52"><path
             id="path54"
             style="fill:#231f20;fill-opacity:1;fill-rule:evenodd;stroke:none"
             d="m 0,0 c -4.577,-3.879 -9.227,-4.901 -10.883,0.475 -1.642,-1.447 -3.216,-2.954 -4.917,-4.297 -2.299,-1.821 -4.818,-2.039 -7.462,-0.691 -1.839,0.939 -2.739,2.429 -2.848,4.465 -0.265,4.902 0.989,9.515 2.822,13.972 2.743,6.672 6.345,12.793 12.317,17.133 3.129,2.272 6.561,3.764 10.616,2.985 C 1.737,33.64 2.9,32.391 3.424,30.416 3.999,28.242 3.772,26.163 2.395,24.361 2.082,23.949 1.166,23.649 0.662,23.788 c -6.867,1.904 -11.431,-1.599 -15.195,-6.593 -2.952,-3.917 -4.938,-8.375 -5.78,-13.238 -0.208,-1.201 0.211,-2.513 0.339,-3.772 1.173,0.625 2.638,0.989 3.471,1.919 4.844,5.409 7.826,11.852 9.737,18.788 0.428,1.547 0.967,2.379 2.613,2.138 1.561,-0.228 3.203,-0.259 4.657,-0.792 C 2.566,21.482 2.741,20.229 1.663,18.331 -0.31,14.867 -2.185,11.348 -4.054,7.825 -4.423,7.135 -4.766,6.326 -4.767,5.569 -4.768,4.854 -4.485,3.94 -3.986,3.492 -3.649,3.189 -2.651,3.377 -2.075,3.631 -0.436,4.351 0.521,5.491 1,7.417 2.976,15.371 6.105,22.83 11.517,29.14 c 2.613,3.046 5.37,3.326 8.159,0.968 2.083,-1.756 2.112,-3.645 0.255,-5.637 C 14.62,18.773 10.2,12.479 7.32,5.188 7.051,4.511 6.841,3.809 6.633,3.109 6.522,2.74 6.474,2.353 6.711,1.782 c 0.633,0.93 1.262,1.862 1.901,2.788 4.349,6.297 8.516,12.731 13.138,18.821 1.923,2.535 4.727,4.45 7.299,6.428 1.521,1.168 5.164,0.408 6.401,-1.063 1.278,-1.518 0.622,-2.907 -0.281,-4.363 C 32.89,20.722 30.515,17.092 28.524,13.266 26.711,9.781 25.505,6.029 25.513,1.993 c 0.007,-3.152 1.166,-5.832 3.154,-8.201 1.188,-1.418 1.083,-2.484 -0.542,-3.34 -4.183,-2.199 -11.06,-1.194 -11.514,5.825 -0.179,2.769 0.333,5.712 1.156,8.386 1.799,5.858 5.417,10.773 9.078,15.614 -0.111,0.125 -0.22,0.25 -0.331,0.375 -1.582,-1.317 -3.302,-2.5 -4.722,-3.972 C 16.049,10.717 11.474,3.979 8.632,-3.855 7.814,-6.108 6.93,-6.508 4.716,-5.534 2.338,-4.488 0.703,-2.758 0,0" /></g><g
           transform="translate(368.0361,224.0508)"
           id="g56"><path
             id="path58"
             style="fill:#231f20;fill-opacity:1;fill-rule:evenodd;stroke:none"
             d="M 0,0 C 6.005,3.804 12.157,10.73 12.773,14.411 6.099,11.791 2.708,6.581 0,0 m 3.633,-15.33 c -6.408,-0.245 -12.453,5.785 -12.028,10.961 0.812,9.867 4.739,18.373 11.978,25.158 1.501,1.403 3.722,2.148 5.728,2.864 1.446,0.515 2.711,-0.268 3.455,-1.685 1.086,-2.069 2.661,-3.543 4.821,-4.562 2.982,-1.411 3.691,-4.854 1.187,-7.05 C 13.984,6.157 8.906,2.284 3.908,-1.675 2.873,-2.496 1.74,-3.259 0.537,-3.788 -1.07,-4.496 -1.425,-5.724 -1.47,-7.265 c -0.072,-2.58 1.425,-3.861 3.95,-3.217 3.957,1.011 7.159,3.394 9.703,6.389 5.168,6.085 10.031,12.431 15.046,18.648 0.417,0.518 1.196,1.335 1.537,1.218 1.353,-0.461 0.997,-1.427 0.37,-2.379 C 26.093,8.785 23.062,4.167 20.042,-0.456 17.065,-5.009 13.606,-9.153 9.159,-12.312 7.152,-13.739 4.812,-14.699 3.633,-15.33" /></g><g
           transform="translate(268.8809,315.4258)"
           id="g60"><path
             id="path62"
             style="fill:#231f20;fill-opacity:1;fill-rule:nonzero;stroke:none"
             d="M 0,0 C -7.258,18.307 -3.491,31.021 -1.864,32.197 7.824,24.914 21.978,26.986 25.789,28 9.885,19.623 1.117,3.869 0,0 M 41.439,-16.779 C 35.603,-11.506 12.635,-5.221 9.583,-4.174 16.604,2.709 24.971,3.74 32.11,18.291 45.008,21.516 54.342,21.508 62.836,31.047 70.594,45.598 66.225,55.475 50.666,67.828 48.541,55.068 47.451,47.627 52.975,38.727 38.227,44.504 29.856,41.537 25.898,36.586 21.496,32.883 8.374,32.459 4.75,36.131 2.931,48.77 -8.886,54.262 -13.94,54.564 c 4.008,7.932 1.374,19.352 1.745,31.418 C -26.271,75.701 -31.24,68.283 -31.311,55.58 c 3.165,-7.154 3.024,-17.889 20.902,-24.305 -6.656,-6.386 -2.267,-23.095 -0.49,-33.646 -7.625,1.359 -35.438,-4.164 -45.286,-8.434 -6.907,-12.115 -5.808,-25.043 3.064,-35.849 0.474,5.758 8.749,16.275 8.254,20.925 16.188,-0.095 25.483,-7.439 39.461,5.782 9.89,-14.813 31.774,-6.502 36.521,-5.412 -7.896,-13.871 9.314,-25.817 20.492,-27.858 -3.787,14.336 -6.332,30.424 -10.168,36.438" /></g><g
           transform="translate(291.6074,378.4492)"
           id="g64"><path
             id="path66"
             style="fill:#231f20;fill-opacity:1;fill-rule:nonzero;stroke:none"
             d="m 0,0 c -7.161,1.545 -16.3,-5.225 -17.36,-13.922 -0.838,-6.885 3.054,-10.318 6.63,-10.976 6.667,-1.231 11.023,-0.426 16.188,3.38 C 11.736,-16.889 15.335,-3.307 0,0" /></g></g></g></g></svg>