<?xml version="1.0" standalone="no"?>
<!DOCTYPE svg PUBLIC "-//W3C//DTD SVG 20010904//EN"
 "http://www.w3.org/TR/2001/REC-SVG-20010904/DTD/svg10.dtd">
<svg version="1.0" xmlns="http://www.w3.org/2000/svg"
 width="707.000000pt" height="772.000000pt" viewBox="0 0 707.000000 772.000000"
 preserveAspectRatio="xMidYMid meet">

<g transform="translate(0.000000,772.000000) scale(0.100000,-0.100000)"
fill="#000000" stroke="none">
<path d="M2521 7588 c-79 -62 -165 -128 -191 -146 -26 -18 -103 -88 -171 -155
-347 -345 -494 -647 -531 -1091 -11 -134 -11 -152 5 -194 9 -26 44 -127 77
-224 102 -303 170 -438 298 -598 142 -178 390 -348 672 -460 47 -18 87 -35 89
-36 2 -2 -12 -25 -32 -51 -88 -121 -130 -252 -147 -462 -19 -232 12 -527 110
-1064 28 -150 50 -276 50 -282 0 -6 -73 -10 -203 -11 -125 0 -257 -7 -347 -18
-575 -68 -1334 -232 -1767 -381 -210 -72 -191 -57 -256 -190 -61 -122 -124
-298 -153 -425 -12 -54 -18 -139 -21 -307 -4 -206 -3 -243 16 -342 26 -135 76
-283 142 -418 50 -102 191 -324 227 -356 17 -16 19 -14 31 45 19 95 61 190
220 503 167 328 210 432 220 525 l6 65 110 -3 c131 -4 319 -24 545 -58 373
-56 571 -67 750 -40 248 38 475 150 711 353 40 35 75 63 78 63 4 0 24 -26 46
-56 120 -168 348 -317 572 -373 337 -85 711 -57 1246 91 81 22 150 38 153 36
2 -3 -9 -34 -26 -69 -81 -175 -93 -404 -28 -574 111 -293 384 -560 763 -745
134 -66 309 -128 386 -137 47 -6 51 -5 46 13 -17 56 -96 384 -172 714 -164
715 -248 1009 -340 1195 -48 98 -65 114 -204 194 -242 142 -719 321 -1381 521
-113 34 -211 65 -218 69 -21 12 172 167 388 311 152 102 309 221 394 301 150
140 297 336 406 541 47 89 55 99 89 108 53 14 225 52 450 100 600 127 851 240
1135 510 71 67 85 87 133 188 108 226 153 409 153 621 0 206 -46 371 -155 560
-97 168 -284 387 -445 521 -58 48 -141 117 -184 154 -44 36 -82 66 -86 66 -3
0 -16 -62 -28 -137 -12 -76 -27 -163 -32 -193 -36 -204 -50 -516 -30 -680 21
-169 82 -357 165 -502 24 -43 42 -78 41 -78 -2 0 -70 22 -152 49 -594 197
-1040 150 -1318 -139 -135 -139 -388 -208 -726 -197 -178 6 -269 23 -380 73
-78 35 -98 58 -111 130 -27 147 -102 320 -196 453 -115 162 -330 334 -527 420
-94 41 -228 81 -273 81 -12 0 -23 3 -23 8 0 4 13 41 29 82 73 186 98 453 81
827 -7 131 -17 367 -23 526 l-12 287 -144 -112z m790 -2894 c199 -134 466
-218 779 -245 190 -16 359 -6 645 37 40 6 39 5 -25 -31 -497 -283 -983 -787
-1259 -1307 -27 -51 -57 -113 -67 -138 -9 -25 -20 -49 -24 -53 -9 -10 -80 186
-125 348 -87 307 -120 560 -112 855 6 213 21 316 67 455 18 54 52 115 65 115
2 0 27 -16 56 -36z"/>
<path d="M4322 6430 c-163 -44 -353 -171 -469 -315 -74 -92 -153 -246 -179
-350 -27 -107 -25 -289 4 -381 41 -133 136 -242 253 -292 119 -51 426 -71 581
-38 140 30 300 109 433 213 156 123 275 370 275 573 -1 276 -165 470 -490 575
-116 38 -299 45 -408 15z"/>
</g>
</svg>
