<?xml version="1.0" standalone="no"?>
<!DOCTYPE svg PUBLIC "-//W3C//DTD SVG 20010904//EN"
 "http://www.w3.org/TR/2001/REC-SVG-20010904/DTD/svg10.dtd">
<svg version="1.0" xmlns="http://www.w3.org/2000/svg"
 width="1580.000000pt" height="1658.000000pt" viewBox="0 0 1580.000000 1658.000000"
 preserveAspectRatio="xMidYMid meet">

<g transform="translate(0.000000,1658.000000) scale(0.100000,-0.100000)"
fill="#000000" stroke="none">
<path d="M5059 16510 c-52 -9 -112 -35 -128 -54 -6 -7 -14 -27 -17 -44 -10
-49 39 -90 156 -132 418 -147 604 -275 749 -520 133 -224 242 -640 382 -1465
33 -198 72 -393 85 -434 55 -165 190 -391 342 -571 78 -92 299 -315 393 -396
l47 -40 -100 -88 c-188 -167 -363 -387 -457 -575 -79 -157 -130 -339 -151
-546 -19 -174 -12 -212 74 -460 130 -372 215 -524 386 -695 146 -147 355 -277
590 -371 47 -18 87 -34 88 -35 2 -2 -14 -27 -37 -56 -82 -109 -124 -243 -143
-452 -21 -231 10 -527 112 -1077 27 -150 50 -275 50 -278 0 -3 -64 -4 -142 -3
-164 4 -337 -9 -593 -44 -571 -80 -1347 -261 -1695 -396 l-85 -33 -61 -122
c-68 -138 -123 -293 -156 -445 -19 -89 -22 -133 -22 -323 0 -206 1 -227 28
-340 58 -248 157 -461 315 -677 31 -43 59 -77 64 -78 4 0 7 9 7 21 0 58 78
242 235 554 165 328 206 426 221 528 l6 47 92 0 c115 0 294 -20 606 -66 284
-41 551 -55 691 -35 245 36 468 144 701 341 l93 79 30 -37 c191 -236 405 -363
709 -419 126 -24 437 -23 601 1 149 21 342 64 529 116 79 22 145 40 149 40 3
0 -8 -30 -24 -67 -71 -156 -90 -348 -49 -509 88 -349 470 -707 949 -889 101
-38 259 -81 267 -72 3 3 -17 97 -44 209 -28 112 -87 363 -132 558 -153 670
-235 959 -329 1155 l-48 102 -84 55 c-239 159 -676 330 -1409 554 -135 41
-251 77 -259 80 -32 11 102 121 354 294 246 169 324 229 434 335 152 146 288
329 397 534 l48 90 106 25 c58 14 211 48 340 76 578 124 793 207 1045 405 149
117 208 186 269 315 61 129 117 298 137 410 8 41 13 136 12 210 -1 109 -6 153
-26 231 -66 253 -200 468 -453 727 -68 69 -122 127 -121 128 1 0 74 13 162 28
273 45 609 128 736 182 248 104 442 335 548 652 42 127 67 259 85 447 15 151
36 258 55 269 4 3 36 -36 71 -87 61 -89 136 -177 152 -177 4 0 0 19 -8 42 -28
79 -28 144 0 283 14 72 33 166 42 210 8 44 18 88 20 97 3 10 27 23 61 33 222
65 723 422 1163 829 114 106 114 106 111 149 -8 133 -64 261 -144 332 -55 50
-174 113 -186 99 -4 -5 -66 -88 -138 -184 -390 -520 -759 -878 -935 -906 -25
-4 -41 1 -68 20 -68 49 -91 58 -154 58 -41 0 -80 8 -120 24 -33 13 -70 24 -83
24 -13 0 -25 6 -27 13 -22 87 -60 317 -60 374 -1 62 -3 70 -14 55 -7 -9 -21
-38 -30 -64 -9 -27 -20 -48 -24 -48 -4 0 -14 12 -21 27 l-15 27 -15 -30 c-28
-54 -68 -188 -83 -279 -18 -99 -13 -194 12 -253 8 -19 13 -37 11 -39 -2 -1
-39 12 -83 31 -201 88 -390 120 -649 113 -297 -8 -502 -58 -1060 -262 -481
-175 -733 -248 -1035 -299 -555 -93 -982 -44 -1406 163 -330 162 -577 368
-920 768 -275 322 -424 535 -619 888 -143 257 -226 390 -323 514 -125 161
-273 290 -412 361 -173 88 -578 166 -721 140z m2597 -4058 c187 -93 316 -131
917 -267 963 -218 1547 -309 2060 -322 l228 -6 -6 -36 c-43 -260 -57 -611 -31
-776 23 -150 60 -266 129 -405 34 -69 63 -128 65 -132 2 -4 -41 8 -95 28 -54
20 -157 51 -228 69 -319 82 -590 87 -810 14 -123 -41 -208 -94 -319 -198 -76
-72 -108 -94 -169 -120 -303 -126 -800 -119 -996 14 -43 28 -46 34 -61 105
-81 372 -319 670 -675 848 -99 49 -221 90 -292 99 -44 5 -54 9 -49 22 3 9 19
54 36 101 56 152 73 281 74 570 0 140 -3 317 -7 392 l-8 138 79 -49 c43 -27
114 -67 158 -89z m426 -2385 c190 -119 419 -190 708 -218 192 -18 491 -2 677
36 25 5 24 4 -10 -17 -120 -71 -316 -205 -407 -278 -134 -106 -355 -323 -475
-465 -201 -238 -395 -543 -481 -754 -9 -21 -19 3 -76 175 -121 363 -161 598
-162 939 -1 237 7 316 45 463 26 96 71 188 88 178 3 -2 45 -29 93 -59z"/>
<path d="M9115 11845 c-162 -30 -339 -126 -466 -254 -302 -302 -359 -772 -123
-1008 105 -105 254 -147 519 -146 175 1 257 18 395 84 251 120 404 282 476
504 32 96 43 250 24 338 -49 239 -275 421 -598 483 -88 17 -133 17 -227 -1z"/>
<path d="M9495 5599 c-92 -21 -246 -74 -265 -91 -27 -25 -25 -54 8 -140 51
-131 57 -163 57 -328 -1 -247 -30 -340 -248 -795 -68 -143 -240 -491 -381
-774 -279 -557 -284 -565 -419 -667 -89 -67 -141 -56 -168 34 -22 76 -20 81
243 565 160 294 167 317 111 367 -40 36 -106 56 -250 78 -104 15 -114 15 -147
0 -44 -22 -57 -46 -107 -209 -113 -369 -269 -664 -483 -912 -40 -47 -67 -67
-134 -98 -46 -22 -85 -39 -86 -37 -2 2 -8 41 -14 86 -10 70 -9 97 4 159 65
314 214 604 430 832 186 197 399 285 609 251 154 -25 177 -25 207 5 92 92 104
314 24 433 -54 80 -111 108 -247 119 -207 16 -442 -90 -667 -302 -185 -175
-306 -350 -464 -675 -151 -310 -195 -373 -439 -632 -92 -98 -128 -130 -157
-137 -42 -12 -47 -9 -61 43 -9 35 -6 50 36 160 81 214 119 278 341 566 157
204 176 239 177 330 0 53 -5 73 -27 112 -46 76 -154 146 -243 155 -110 11
-148 -23 -457 -409 -194 -242 -246 -298 -274 -298 -22 0 -17 19 31 112 57 110
69 162 55 237 -13 75 -72 192 -115 230 -66 58 -161 32 -248 -68 -90 -104 -581
-632 -625 -673 -78 -73 -99 -62 -54 27 13 26 273 376 455 613 114 149 116 224
6 327 -152 142 -303 123 -438 -55 -177 -232 -402 -691 -526 -1070 -21 -63 -53
-145 -72 -182 -61 -117 -219 -245 -309 -251 -33 -2 -41 2 -62 33 -20 30 -23
44 -20 98 5 72 17 98 239 498 88 159 143 268 146 293 11 80 -52 122 -225 152
-134 23 -176 23 -213 2 -36 -21 -50 -52 -95 -200 -93 -306 -232 -590 -392
-801 -103 -134 -156 -187 -219 -215 -95 -42 -95 -42 -111 38 -12 61 -12 79 3
155 80 409 349 842 633 1014 131 80 301 111 447 82 115 -23 138 -21 173 13 88
89 104 268 36 409 -45 93 -119 130 -274 139 -225 12 -399 -69 -634 -297 -441
-427 -674 -945 -711 -1587 -4 -68 -10 -123 -13 -123 -14 0 -119 90 -157 134
-146 173 -294 504 -326 732 -18 130 23 271 107 364 22 24 170 147 329 275 160
128 408 327 551 442 244 196 364 288 765 585 180 133 220 180 227 264 6 69
-22 128 -89 188 -70 63 -141 88 -265 94 -112 5 -186 -10 -260 -54 -26 -14
-143 -136 -305 -316 -327 -363 -532 -574 -763 -784 -123 -112 -193 -169 -223
-180 -24 -9 -47 -14 -50 -10 -4 4 -1 26 8 49 15 41 218 360 442 696 60 90 115
179 123 197 21 49 18 121 -7 160 -54 89 -204 187 -339 223 -168 44 -266 37
-339 -26 -47 -40 -64 -69 -120 -210 -36 -91 -626 -1370 -1120 -2428 -218 -466
-223 -483 -181 -552 39 -65 220 -181 308 -197 49 -9 96 16 136 71 19 26 139
253 266 504 183 362 242 469 286 521 76 91 88 86 104 -40 6 -54 34 -196 61
-317 97 -436 146 -535 305 -607 43 -20 65 -23 169 -22 146 1 243 29 348 99 37
25 70 45 74 45 4 0 53 -18 109 -40 127 -50 189 -58 274 -36 95 24 159 67 292
195 65 63 120 112 122 110 2 -2 15 -29 30 -59 92 -186 228 -185 516 5 56 37
102 65 104 63 1 -1 7 -29 14 -62 15 -75 43 -133 91 -188 48 -53 133 -105 186
-113 75 -12 94 11 224 270 127 251 200 372 326 540 122 162 274 299 295 265 5
-8 4 -22 -1 -32 -15 -29 -142 -381 -188 -520 -22 -70 -41 -143 -41 -163 0 -74
52 -130 155 -165 130 -45 212 -34 254 34 11 17 53 111 95 208 41 98 94 215
117 260 50 100 182 305 187 290 1 -5 -4 -73 -12 -151 -21 -183 -21 -371 -1
-439 20 -67 69 -130 125 -160 40 -21 55 -23 135 -20 138 6 182 33 376 230
l156 158 5 -103 c7 -127 31 -190 95 -247 69 -61 139 -84 253 -85 84 0 101 3
146 27 61 32 117 76 252 198 57 51 104 91 106 89 1 -2 11 -26 21 -54 24 -66
87 -129 144 -145 55 -15 134 -2 223 35 35 15 70 29 78 31 10 3 51 -23 103 -64
211 -169 303 -196 355 -104 11 20 93 242 182 492 88 250 172 479 185 507 19
42 78 107 287 316 256 257 265 265 340 297 62 26 81 30 92 21 12 -10 12 -19
-6 -62 -16 -39 -57 -85 -197 -221 -97 -95 -241 -231 -321 -301 -159 -141 -190
-175 -229 -257 -24 -50 -26 -65 -24 -170 4 -340 172 -694 375 -792 144 -70
292 -62 381 21 49 45 70 98 74 186 2 44 0 85 -4 90 -4 6 -39 18 -78 28 -144
36 -263 116 -369 249 -120 150 -161 271 -118 354 29 55 86 106 257 229 401
288 524 407 666 646 79 131 99 184 99 257 0 158 -133 263 -295 233 -120 -22
-209 -76 -407 -248 l-107 -93 24 53 c12 28 80 167 149 307 183 370 234 509
256 698 14 116 2 236 -31 312 -26 61 -101 131 -157 148 -45 14 -129 14 -187 1z"/>
<path d="M14020 4548 c-147 -60 -191 -89 -287 -186 -334 -339 -530 -751 -594
-1247 -22 -169 2 -277 90 -401 117 -167 309 -281 491 -292 l85 -5 110 56 c253
127 458 308 672 592 51 68 172 249 588 885 75 114 82 133 61 165 -16 25 -39
31 -71 19 -9 -4 -168 -196 -352 -428 -566 -709 -654 -806 -817 -907 -161 -99
-331 -143 -404 -105 -65 33 -95 160 -63 259 12 37 81 107 104 107 36 0 462
324 847 646 230 192 245 212 238 325 -5 98 -36 137 -163 213 -116 70 -184 135
-242 233 -75 125 -128 138 -293 71z m280 -501 c0 -29 -81 -177 -140 -257 -85
-114 -311 -339 -438 -433 -57 -42 -107 -77 -112 -77 -12 0 67 171 127 275 126
218 304 391 495 480 61 29 68 30 68 12z"/>
<path d="M11118 4570 c-282 -51 -608 -318 -832 -680 -148 -238 -284 -564 -342
-816 -35 -155 -45 -399 -21 -485 22 -75 73 -131 155 -171 63 -31 74 -33 172
-33 88 0 111 3 145 22 56 30 144 97 255 197 52 47 98 86 102 86 4 0 10 -10 13
-22 15 -50 69 -119 112 -145 36 -21 57 -26 111 -25 98 1 203 46 324 137 l46
36 17 -50 c46 -139 220 -280 348 -281 55 0 84 35 135 169 146 377 376 735 671
1044 122 127 304 277 309 254 2 -8 -41 -74 -94 -148 -309 -422 -443 -736 -461
-1075 -13 -262 71 -417 259 -476 152 -47 389 1 441 89 24 42 16 68 -49 156
-67 89 -118 192 -138 277 -22 93 -20 260 4 380 48 235 123 390 422 872 70 114
133 227 140 252 32 121 -92 226 -269 226 -83 0 -95 -6 -250 -127 -239 -185
-284 -242 -868 -1101 -203 -298 -241 -350 -249 -333 -14 31 46 191 146 391
134 269 285 490 511 749 132 150 157 191 157 254 0 78 -87 177 -194 222 -50
21 -151 19 -204 -5 -84 -38 -197 -165 -335 -375 -160 -244 -279 -524 -377
-885 -17 -61 -39 -128 -49 -148 -39 -75 -137 -141 -208 -142 -24 0 -37 7 -49
25 -27 42 -35 98 -20 148 12 40 129 264 311 594 80 145 89 185 51 230 -37 44
-112 69 -256 87 -187 23 -187 23 -261 -214 -95 -310 -233 -589 -395 -801 -95
-125 -142 -168 -223 -206 -40 -18 -75 -32 -77 -30 -9 8 -24 114 -24 163 0 29
13 104 29 166 78 299 220 548 435 764 109 109 130 125 216 166 52 26 119 52
148 58 73 17 214 15 296 -4 64 -15 71 -15 105 1 74 36 120 177 100 302 -21
132 -79 213 -178 246 -57 18 -200 27 -263 15z"/>
<path d="M9904 1665 c-168 -36 -268 -147 -268 -294 0 -152 97 -246 316 -307
215 -59 226 -63 252 -95 32 -37 33 -77 4 -114 -44 -56 -130 -70 -204 -35 -47
23 -72 55 -89 115 l-12 40 -108 -4 c-59 -2 -129 -6 -155 -10 l-47 -6 13 -65
c26 -125 116 -228 230 -264 86 -27 233 -39 335 -26 185 22 286 86 348 220 21
45 25 69 25 135 -1 94 -17 137 -74 199 -56 61 -147 102 -328 147 -195 50 -211
59 -202 119 6 47 76 75 150 59 52 -11 92 -46 107 -94 l10 -30 109 3 c60 1 129
5 153 8 l43 6 -6 39 c-15 92 -77 179 -157 220 -92 47 -310 63 -445 34z"/>
<path d="M5140 1135 l0 -525 165 0 165 0 0 215 0 215 200 0 200 0 0 105 0 105
-200 0 -200 0 0 95 0 95 235 0 235 0 0 110 0 110 -400 0 -400 0 0 -525z"/>
<path d="M6069 1135 l-196 -525 166 0 167 0 26 88 25 87 184 0 183 0 27 -85
26 -85 171 -3 172 -2 -24 62 c-12 35 -101 271 -196 526 l-174 462 -180 0 -181
0 -196 -525z m431 66 c27 -90 50 -170 50 -177 0 -11 -23 -14 -110 -14 -60 0
-110 4 -110 8 0 4 9 35 19 68 11 32 36 113 57 179 20 66 38 116 40 110 2 -5
26 -84 54 -174z"/>
<path d="M7130 1135 l0 -525 160 0 160 0 0 216 0 217 42 -6 c23 -3 53 -14 67
-25 15 -11 72 -103 130 -211 l105 -191 183 0 184 0 -85 168 c-94 184 -153 263
-213 283 l-36 12 46 17 c139 53 199 137 199 281 0 118 -46 205 -132 249 -68
34 -134 40 -475 40 l-335 0 0 -525z m584 286 c34 -32 42 -80 22 -119 -24 -46
-50 -55 -173 -60 l-113 -5 0 108 0 107 119 -3 c110 -4 121 -6 145 -28z"/>
<path d="M8260 1135 l0 -525 135 0 135 0 2 385 3 385 79 -312 c44 -172 88
-346 99 -386 l19 -73 121 3 120 3 97 378 c54 208 100 380 104 384 3 3 6 -168
6 -380 l0 -387 130 0 130 0 0 525 0 525 -213 0 -213 0 -79 -311 c-43 -171 -82
-304 -86 -297 -3 7 -39 139 -78 293 -40 154 -74 288 -77 298 -5 15 -24 17
-220 17 l-214 0 0 -525z"/>
</g>
</svg>
