<?xml version="1.0" standalone="no"?>
<!DOCTYPE svg PUBLIC "-//W3C//DTD SVG 20010904//EN"
 "http://www.w3.org/TR/2001/REC-SVG-20010904/DTD/svg10.dtd">
<svg version="1.0" xmlns="http://www.w3.org/2000/svg"
 width="1422.000000pt" height="500.000000pt" viewBox="0 0 1422.000000 500.000000"
 preserveAspectRatio="xMidYMid meet">

<g transform="translate(0.000000,500.000000) scale(0.100000,-0.100000)"
fill="#000000" stroke="none">
<path d="M8498 4967 c-151 -50 -159 -63 -110 -189 51 -131 57 -163 57 -328 -1
-247 -30 -340 -248 -795 -68 -143 -240 -491 -381 -774 -279 -557 -284 -565
-419 -667 -89 -67 -141 -56 -168 34 -22 76 -20 81 243 565 160 294 167 317
111 367 -40 36 -106 56 -250 78 -104 15 -114 15 -147 0 -44 -22 -57 -46 -107
-209 -113 -369 -269 -664 -483 -912 -40 -47 -67 -67 -134 -98 -46 -22 -85 -39
-86 -37 -2 2 -8 41 -14 86 -10 70 -9 97 4 159 65 314 214 604 430 832 186 197
399 285 609 251 154 -25 177 -25 207 5 92 92 104 314 24 433 -54 80 -111 108
-247 119 -207 16 -442 -90 -667 -302 -185 -175 -306 -350 -464 -675 -151 -310
-195 -373 -439 -632 -92 -98 -128 -130 -157 -137 -42 -12 -47 -9 -61 43 -9 35
-6 50 36 160 81 214 119 278 341 566 157 204 176 239 177 330 0 53 -5 73 -27
112 -46 76 -154 146 -243 155 -110 11 -148 -23 -457 -409 -194 -242 -246 -298
-274 -298 -22 0 -17 19 31 112 57 110 69 162 55 237 -13 75 -72 192 -115 230
-66 58 -161 32 -248 -68 -90 -104 -581 -632 -625 -673 -78 -73 -99 -62 -54 27
13 26 273 376 455 613 114 149 116 224 6 327 -152 142 -303 123 -438 -55 -177
-232 -402 -691 -526 -1070 -21 -63 -53 -145 -72 -182 -61 -117 -219 -245 -309
-251 -33 -2 -41 2 -62 33 -20 30 -23 44 -20 98 5 72 17 98 239 498 88 159 143
268 146 293 11 80 -52 122 -225 152 -134 23 -176 23 -213 2 -36 -21 -50 -52
-95 -200 -93 -306 -232 -590 -392 -801 -103 -134 -156 -187 -219 -215 -95 -42
-95 -42 -111 38 -12 61 -12 79 3 155 80 409 349 842 633 1014 131 80 301 111
447 82 115 -23 138 -21 173 13 88 89 104 268 36 409 -45 93 -119 130 -274 139
-225 12 -399 -69 -634 -297 -441 -427 -674 -945 -711 -1587 -4 -68 -10 -123
-13 -123 -14 0 -119 90 -157 134 -146 173 -294 504 -326 732 -18 130 23 271
107 364 22 24 170 147 329 275 160 128 408 327 551 442 244 196 364 288 765
585 176 130 219 180 227 259 6 61 -10 106 -55 158 -74 87 -182 131 -320 131
-98 0 -143 -10 -222 -48 -45 -22 -92 -69 -311 -312 -431 -478 -540 -590 -830
-849 -117 -104 -199 -156 -217 -137 -4 4 -1 26 8 49 15 41 218 360 442 696 60
90 115 179 123 197 21 49 18 121 -7 160 -55 89 -208 189 -341 223 -172 44
-265 37 -337 -26 -47 -40 -64 -69 -117 -203 -20 -52 -67 -160 -104 -240 -77
-166 -80 -173 -282 -610 -83 -179 -175 -376 -204 -439 -30 -62 -54 -115 -54
-116 0 -2 -21 -47 -46 -102 -26 -54 -77 -163 -114 -243 -37 -80 -169 -364
-293 -631 -246 -526 -250 -537 -207 -606 39 -65 220 -181 308 -197 49 -9 96
16 136 71 19 26 139 253 266 504 183 362 242 469 286 521 76 91 88 86 104 -40
6 -54 34 -196 61 -317 97 -436 146 -535 305 -607 43 -20 65 -23 169 -22 146 1
243 29 348 99 37 25 70 45 74 45 4 0 53 -18 109 -40 127 -50 189 -58 274 -36
95 24 159 67 292 195 65 63 120 112 122 110 2 -2 15 -29 30 -59 92 -186 228
-185 516 5 56 37 102 65 104 63 1 -1 7 -29 14 -62 15 -75 43 -133 91 -188 48
-53 133 -105 186 -113 75 -12 94 11 224 270 127 251 200 372 326 540 122 162
274 299 295 265 5 -8 4 -22 -1 -32 -15 -29 -142 -381 -188 -520 -22 -70 -41
-143 -41 -163 0 -74 52 -130 155 -165 130 -45 212 -34 254 34 11 17 53 111 95
208 41 98 94 215 117 260 50 100 182 305 187 290 1 -5 -4 -73 -12 -151 -21
-183 -21 -371 -1 -439 20 -67 69 -130 125 -160 40 -21 55 -23 135 -20 138 6
182 33 376 230 l156 158 5 -103 c7 -127 31 -190 95 -247 69 -61 139 -84 253
-85 84 0 101 3 146 27 61 32 117 76 252 198 57 51 104 91 106 89 1 -2 11 -26
21 -54 24 -66 87 -129 144 -145 55 -15 134 -2 223 35 35 15 70 29 78 31 10 3
51 -23 103 -64 211 -169 303 -196 355 -104 11 20 93 242 182 492 88 250 172
479 185 507 19 42 78 107 287 316 256 257 265 265 340 297 62 26 81 30 92 21
12 -10 12 -19 -6 -62 -16 -39 -57 -85 -197 -221 -97 -95 -241 -231 -321 -301
-159 -141 -190 -175 -229 -257 -24 -50 -26 -65 -24 -170 4 -340 172 -694 375
-792 144 -70 292 -62 381 21 49 45 70 98 74 186 2 44 0 85 -4 90 -4 6 -39 18
-78 28 -144 36 -263 116 -369 249 -120 150 -161 271 -118 354 29 55 86 106
257 229 401 288 524 407 666 646 79 131 99 184 99 257 0 116 -73 208 -185 233
-44 10 -65 9 -123 -4 -126 -29 -223 -91 -429 -275 l-73 -64 24 53 c13 30 75
158 138 284 200 405 245 526 268 721 22 190 -13 329 -102 409 l-50 45 -137 0
c-126 -1 -143 -3 -233 -33z"/>
<path d="M13180 3962 c-151 -61 -179 -79 -279 -176 -343 -335 -547 -754 -612
-1261 -22 -169 2 -277 90 -401 117 -167 309 -281 491 -292 l85 -5 110 56 c253
127 457 308 672 592 33 44 156 225 272 403 l212 323 -3 116 -3 115 -270 -339
c-535 -670 -640 -786 -799 -884 -161 -99 -331 -143 -404 -105 -65 33 -95 160
-63 259 12 37 81 107 104 107 7 0 49 24 93 53 132 87 841 655 928 743 82 84
90 213 16 306 -11 15 -65 53 -118 84 -108 64 -184 135 -230 216 -77 134 -136
152 -292 90z m270 -505 c0 -29 -81 -177 -140 -257 -85 -114 -311 -339 -438
-433 -57 -42 -107 -77 -112 -77 -12 0 67 171 127 275 126 218 304 391 495 480
61 29 68 30 68 12z"/>
<path d="M10274 3981 c-266 -42 -591 -300 -816 -646 -153 -234 -303 -587 -364
-851 -35 -155 -45 -399 -21 -485 22 -75 73 -131 155 -171 63 -31 74 -33 172
-33 88 0 111 3 145 22 56 30 144 97 255 197 52 47 98 86 102 86 4 0 10 -10 13
-22 15 -50 69 -119 112 -145 36 -21 57 -26 111 -25 98 1 203 46 324 137 l46
36 17 -50 c46 -139 220 -280 348 -281 55 0 84 35 135 169 146 377 376 735 671
1044 122 127 304 277 309 254 2 -8 -41 -74 -94 -148 -309 -422 -443 -736 -461
-1075 -13 -262 71 -417 259 -476 152 -47 389 1 441 89 24 42 16 68 -49 156
-67 89 -118 192 -138 277 -22 93 -20 260 4 380 48 235 123 390 422 872 70 114
133 228 140 252 32 122 -95 226 -276 226 -71 0 -93 -11 -226 -114 -251 -194
-304 -261 -885 -1114 -203 -298 -241 -350 -249 -333 -14 31 46 191 146 391
134 270 285 491 512 749 160 183 181 233 135 329 -23 47 -99 113 -164 143 -54
25 -156 25 -212 -1 -83 -37 -203 -171 -336 -375 -161 -248 -279 -525 -377
-885 -17 -61 -39 -128 -49 -148 -39 -75 -137 -141 -208 -142 -24 0 -37 7 -49
25 -27 42 -35 98 -20 148 12 40 129 264 312 597 54 98 69 134 69 167 0 83 -74
122 -275 147 -187 23 -187 23 -261 -214 -95 -310 -233 -589 -395 -801 -95
-125 -142 -168 -223 -206 -40 -18 -75 -32 -77 -30 -9 8 -24 114 -24 163 0 29
13 104 29 166 78 299 220 548 435 764 109 109 130 125 216 166 52 26 119 52
148 58 73 17 214 15 296 -4 64 -15 71 -15 105 1 73 36 120 178 100 303 -20
128 -82 213 -179 245 -56 18 -188 26 -256 16z"/>
<path d="M9054 1075 c-168 -36 -268 -147 -268 -294 0 -152 97 -246 316 -307
215 -59 226 -63 252 -95 32 -37 33 -77 4 -114 -44 -56 -130 -70 -204 -35 -47
23 -72 55 -89 115 l-12 40 -108 -4 c-59 -2 -129 -6 -155 -10 l-47 -6 13 -65
c26 -125 116 -228 230 -264 86 -27 233 -39 335 -26 185 22 286 86 348 220 21
45 25 69 25 135 -1 94 -17 137 -74 199 -56 61 -147 102 -328 147 -195 50 -211
59 -202 119 6 47 76 75 150 59 52 -11 92 -46 107 -94 l10 -30 109 3 c60 1 129
5 153 8 l43 6 -6 39 c-15 92 -77 179 -157 220 -92 47 -310 63 -445 34z"/>
<path d="M4290 545 l0 -525 165 0 165 0 0 215 0 215 200 0 200 0 0 105 0 105
-200 0 -200 0 0 95 0 95 235 0 235 0 0 110 0 110 -400 0 -400 0 0 -525z"/>
<path d="M5219 545 l-196 -525 166 0 167 0 26 87 25 88 184 0 183 0 27 -85 26
-85 171 -3 172 -2 -24 62 c-12 35 -101 271 -196 526 l-174 462 -180 0 -181 0
-196 -525z m431 66 c27 -90 50 -170 50 -177 0 -11 -23 -14 -110 -14 -60 0
-110 4 -110 8 0 4 9 35 19 68 11 32 36 113 57 179 20 66 38 116 40 110 2 -5
26 -84 54 -174z"/>
<path d="M6280 545 l0 -525 160 0 160 0 0 216 0 217 42 -6 c23 -3 53 -14 67
-25 15 -11 72 -103 130 -211 l105 -191 183 0 184 0 -85 168 c-94 184 -153 263
-213 283 l-36 12 46 17 c139 53 199 137 199 281 0 118 -46 205 -132 249 -68
34 -134 40 -475 40 l-335 0 0 -525z m584 286 c34 -32 42 -80 22 -119 -24 -46
-50 -55 -173 -60 l-113 -5 0 108 0 107 119 -3 c110 -4 121 -6 145 -28z"/>
<path d="M7410 545 l0 -525 135 0 135 0 2 385 3 385 79 -312 c44 -172 88 -346
99 -386 l19 -73 121 3 120 3 97 378 c54 208 100 380 104 384 3 3 6 -168 6
-380 l0 -387 130 0 130 0 0 525 0 525 -213 0 -213 0 -79 -311 c-43 -171 -82
-304 -86 -297 -3 7 -39 139 -78 293 -40 154 -74 288 -77 298 -5 15 -24 17
-220 17 l-214 0 0 -525z"/>
</g>
</svg>
